<?xml version="1.0" encoding="UTF-8"?>
<svg id="Layer_1" data-name="Layer 1" xmlns="http://www.w3.org/2000/svg" viewBox="0 0 1104.44 908.04">
  <defs>
    <style>
      .cls-1 {
        fill: #fb6f92;
      }
    </style>
  </defs>
  <path class="cls-1" d="M1082.14,183.85c-9.16-22.15-21.11-43.27-35.74-63.06C992.8,47.99,910.54,4.13,820.76.44c-4.43-.29-8.56-.44-12.99-.44l-5.02.15c-13.74.15-27.91,1.48-42.23,3.69l-1.63.29c-91.41,11.81-160.37,45.78-210.28,73.98-9.16,5.02-18.16,10.34-27.03,15.51l-3.55,2.07-43.41,26.88c-5.02,3.1-10.19,6.2-15.06,9.01-2.06,1.33-4.13,2.66-6.2,3.84-62.91,37.36-115.33,60.69-182.08,60.69-42.23,0-86.83-9.75-136.6-29.68l-1.03,1.33c-13.58,16.98-24.36,35.88-32.48,57.44,62.61,26.58,119.17,39.43,172.77,39.43,89.79,0,158.45-37.07,221.66-75.31l44-27.17c1.93-1.18,3.84-2.36,6.35-3.84,4.14-2.66,8.27-5.17,12.41-7.53,9.89-5.91,19.79-11.67,29.97-17.28,10.33-5.61,20.67-11.08,31.31-16.24,15.21-7.53,30.71-14.32,46.07-19.94,5.76-2.22,11.82-4.43,18.17-6.65,5.75-1.92,11.67-3.69,17.57-5.46l1.77-.44c5.03-1.48,10.2-2.81,16.1-4.13,1.62-.44,3.1-.89,4.43-1.03,6.2-1.48,12.55-2.81,18.9-3.99,4.43-.89,8.86-1.62,13.3-2.22,3.99-.74,7.97-1.33,11.08-1.48l.74-.44h1.04c12.84-1.77,26.43-2.95,40.46-3.54,4.87,0,9.6.3,15.06.59,62.17,4.58,120.5,34.85,160.23,83.29l2.36,2.95-3.54,1.63c-59.22,26.88-111.64,39.87-160.37,39.87-65.42,0-117.55-22.74-175.88-57-3.84-2.36-7.53-4.58-11.37-6.94l-6.94,3.25c-10.48,5.17-20.52,10.49-30.41,15.95-10.04,5.61-19.79,11.22-30.28,17.28-.59.3-1.03.74-1.48.89,1.77,1.03,3.4,2.22,5.03,3.25h.44l.59.59c11.37,6.94,22.74,13.88,33.96,20.67,57.3,34.26,125.82,70.73,213.69,70.73,60.25,0,124.79-16.54,197.44-50.5l2.8-1.33,1.18,2.95c9.75,25.69,14.77,52.87,14.77,80.63,0,21.41-2.96,42.53-8.71,62.32-1.33,5.02-2.96,9.75-4.59,14.62-8.56,23.78-20.67,45.63-36.18,65.12-3.1,3.99-6.65,7.97-10.19,11.81-41.5,45.48-97.91,72.06-159.2,74.57-26.43-1.03-51.83-4.28-77.08-9.89l-1.63-.15-.29-.15c-29.53-6.5-58.04-15.95-85.5-28.35l-5.61-2.07-3.84,2.36-65.08,39.4s-.04.02-.05.03c50.36,26.58,96.43,44.15,145.31,54.93,27.17,8.12,55.38,12.11,83.87,12.11h5.47v-.15l2.96-.15c3.4,0,6.64-.29,10.04-.44l9.45-.59-226.97,226.97c-15.06,15.06-34.99,23.48-56.41,23.48s-41.35-8.42-56.42-23.48l-227.12-226.97s13.44.89,14.92.89c4.28.29,8.71.44,12.99.44l5.02-.15c14.33,0,28.94-1.33,44.16-3.84l1.48-.15c90.96-12.4,159.19-45.93,208.51-73.69,3.55-1.92,7.09-3.99,10.49-5.91l6.94-3.99,4.14-2.51c3.1-1.77,6.2-3.54,9.15-5.46,10.93-6.5,21.42-13,31.9-19.49l11.52-7.09c7.24-4.43,14.18-8.71,21.27-12.85,49.17-29.39,107.8-60.69,181.78-60.69,42.24,0,86.98,9.75,136.75,29.83,14.32-17.87,25.55-37.66,33.37-59.07-62.91-26.58-119.46-39.43-172.92-39.43-89.34,0-158.16,37.21-221.06,75.31-8.72,5.32-17.57,10.78-26.88,16.39-4.13,2.66-8.27,5.17-12.55,7.68v.15l-27.76,16.69c-3.54,2.21-7.23,4.28-10.78,6.35-7.53,4.43-15.06,8.57-23.18,12.85-5.91,3.25-11.96,6.5-17.87,9.3l-5.47,2.66c-50.8,24.96-98.35,39.58-150.33,46.07-11.96,1.62-23.92,2.51-37.65,3.1-5.61,0-11.23-.15-16.69-.74-53.46-3.69-104.26-26.58-143.09-64.53l-3.1-3.1c-4.73-4.87-9.45-9.89-13.74-15.21l-2.51-2.95,3.54-1.62c59.22-26.88,111.79-40.02,160.52-40.02,65.27,0,117.4,22.89,175.58,57.15,3.69,2.07,7.53,4.43,11.37,6.64,1.47-.74,3.1-1.48,4.72-2.21l7.54-3.84c6.05-2.81,11.96-5.91,18.46-9.6,7.08-3.84,14.32-7.68,21.41-11.96,3.99-2.21,7.54-4.28,11.23-6.5l5.61-3.25c-1.63-1.03-3.25-1.92-4.73-2.95h-.44l-.59-.59c-11.22-7.09-22.59-13.88-34.11-20.67-57.15-34.26-125.67-70.73-213.68-70.73-60.25,0-124.79,16.39-197.3,50.36l-2.95,1.33-1.18-2.95c-9.6-25.84-14.62-53.01-14.62-80.78,0-21.56,2.95-42.53,8.85-62.17,1.18-5.02,2.8-9.89,4.43-14.47,8.41-23.63,20.52-45.63,36.03-65.12,3.4-4.13,6.64-8.12,10.33-11.96,41.35-45.48,97.76-72.06,159.79-74.72,27.17,1.33,53.45,4.87,78.12,10.34l1.92.15.14.44c29.69,6.65,58.92,16.39,89.19,29.98l14.18-8.71,33.23-20.67,3.11-1.77,2.95-1.62c5.02-3.1,10.19-6.2,15.51-9.16-49.77-26.43-95.7-44.01-144.43-54.79l-1.92-.44c-25.99-7.97-53.75-11.96-82.7-11.96,0,0-3.54,0-5.61.15v.15h-2.8C200.39,2.66,118.72,43.71,64.09,112.97c-3.1,3.84-6.2,7.68-9.01,11.67-14.18,19.79-25.84,41.2-34.56,63.79-1.77,4.43-3.54,9.16-5.02,13.88C5.17,232.58,0,264.33,0,296.67,0,335.81,7.53,373.76,22.3,409.64c9.3,22.59,21.26,43.86,35.59,63.2,6.79,9.16,14.47,18.16,22.89,27.02l.89,1.03,3.25,3.25c2.21,2.36,4.43,4.58,6.79,6.79l352.2,352.2c28.94,28.94,67.48,44.89,108.39,44.89s79.45-15.95,108.54-44.89l357.66-357.81,2.8-2.95c7.09-7.24,13.44-14.47,19.05-21.71,2.96-3.84,5.91-7.68,8.86-11.81,14.03-19.49,25.69-40.91,34.7-63.65,1.77-4.43,3.24-9.01,5.02-14.03,10.34-30.27,15.5-62.02,15.5-94.51,0-39.13-7.53-77.09-22.3-112.82ZM600.14,513.61l-3.1,1.92c-5.89,3.53-12.08,7.07-18.41,10.75l58.92-35.65-10.69,6.59c-8.71,5.46-17.42,10.93-26.73,16.39Z"/>
</svg>