<?xml version="1.0" encoding="UTF-8"?>
<svg id="Layer_1" data-name="Layer 1" xmlns="http://www.w3.org/2000/svg" viewBox="0 0 1105.68 330.89">
  <defs>
    <style>
      .cls-1 {
        fill: #fb6f92;
      }

      .cls-2 {
        fill: #fff;
      }
    </style>
  </defs>
  <path class="cls-1" d="M394.33,67c-3.34-8.07-7.69-15.77-13.02-22.98C361.78,17.49,331.8,1.51,299.09.16c-1.61-.11-3.12-.16-4.73-.16l-1.83.05c-5.01.05-10.17.54-15.39,1.35l-.59.11c-33.31,4.31-58.44,16.68-76.63,26.96-3.34,1.83-6.62,3.77-9.85,5.65l-1.29.75-15.82,9.79c-1.83,1.13-3.71,2.26-5.49,3.28-.75.48-1.51.97-2.26,1.4-22.92,13.61-42.03,22.12-66.35,22.12-15.39,0-31.64-3.55-49.78-10.82l-.38.48c-4.95,6.19-8.88,13.08-11.84,20.93,22.81,9.69,43.43,14.37,62.96,14.37,32.72,0,57.74-13.51,80.77-27.44l16.03-9.9c.7-.43,1.4-.86,2.31-1.4,1.51-.97,3.01-1.88,4.52-2.74,3.6-2.15,7.21-4.25,10.92-6.3,3.77-2.04,7.53-4.04,11.41-5.92,5.54-2.74,11.19-5.22,16.79-7.26,2.1-.81,4.31-1.61,6.62-2.42,2.1-.7,4.25-1.35,6.4-1.99l.64-.16c1.83-.54,3.72-1.02,5.87-1.51.59-.16,1.13-.32,1.61-.38,2.26-.54,4.57-1.02,6.89-1.45,1.62-.32,3.23-.59,4.85-.81,1.45-.27,2.91-.48,4.04-.54l.27-.16h.38c4.68-.65,9.63-1.08,14.74-1.29,1.78,0,3.5.11,5.49.22,22.65,1.67,43.91,12.7,58.39,30.35l.86,1.08-1.29.59c-21.58,9.79-40.68,14.53-58.44,14.53-23.84,0-42.83-8.29-64.09-20.77-1.4-.86-2.74-1.67-4.14-2.53l-2.53,1.18c-3.82,1.88-7.48,3.82-11.08,5.81-3.66,2.04-7.21,4.09-11.03,6.3-.22.11-.38.27-.54.32.65.38,1.24.81,1.83,1.18h.16l.22.22c4.14,2.53,8.29,5.06,12.38,7.53,20.88,12.48,45.85,25.78,77.87,25.78,21.96,0,45.47-6.03,71.95-18.4l1.02-.48.43,1.08c3.55,9.36,5.38,19.26,5.38,29.38,0,7.8-1.08,15.5-3.17,22.71-.49,1.83-1.08,3.55-1.67,5.33-3.12,8.66-7.53,16.63-13.18,23.73-1.13,1.45-2.42,2.91-3.71,4.3-15.12,16.57-35.68,26.26-58.01,27.18-9.63-.38-18.89-1.56-28.09-3.61l-.59-.05-.11-.05c-10.76-2.37-21.15-5.81-31.16-10.33l-2.04-.75-1.4.86-23.71,14.36s-.01,0-.02.01c18.35,9.69,35.14,16.09,52.95,20.02,9.9,2.96,20.18,4.41,30.56,4.41h1.99v-.05l1.08-.05c1.24,0,2.42-.11,3.66-.16l3.44-.22-82.71,82.71c-5.49,5.49-12.75,8.56-20.56,8.56s-15.07-3.07-20.56-8.56l-82.76-82.71s4.9.32,5.44.32c1.56.11,3.17.16,4.73.16l1.83-.05c5.22,0,10.55-.48,16.09-1.4l.54-.05c33.15-4.52,58.01-16.74,75.98-26.85,1.29-.7,2.58-1.45,3.82-2.15l2.53-1.45,1.51-.91c1.13-.65,2.26-1.29,3.33-1.99,3.98-2.37,7.8-4.74,11.62-7.1l4.2-2.58c2.64-1.61,5.17-3.18,7.75-4.68,17.92-10.71,39.28-22.12,66.24-22.12,15.39,0,31.7,3.55,49.83,10.87,5.22-6.51,9.31-13.72,12.16-21.52-22.92-9.69-43.53-14.37-63.01-14.37-32.56,0-57.63,13.56-80.56,27.44-3.18,1.94-6.4,3.93-9.8,5.97-1.51.97-3.01,1.88-4.57,2.8v.05l-10.12,6.08c-1.29.81-2.64,1.56-3.93,2.31-2.74,1.61-5.49,3.12-8.45,4.68-2.15,1.18-4.36,2.37-6.51,3.39l-1.99.97c-18.51,9.09-35.84,14.42-54.78,16.79-4.36.59-8.72.91-13.72,1.13-2.04,0-4.09-.05-6.08-.27-19.48-1.35-37.99-9.69-52.14-23.52l-1.13-1.13c-1.72-1.78-3.44-3.61-5.01-5.54l-.91-1.08,1.29-.59c21.58-9.79,40.74-14.58,58.49-14.58,23.78,0,42.78,8.34,63.98,20.83,1.35.75,2.74,1.61,4.14,2.42.54-.27,1.13-.54,1.72-.81l2.75-1.4c2.2-1.02,4.36-2.15,6.73-3.5,2.58-1.4,5.22-2.8,7.8-4.36,1.45-.81,2.75-1.56,4.09-2.37l2.04-1.18c-.59-.38-1.19-.7-1.72-1.08h-.16l-.22-.22c-4.09-2.58-8.23-5.06-12.43-7.53-20.83-12.48-45.79-25.78-77.86-25.78-21.96,0-45.47,5.97-71.89,18.35l-1.07.48-.43-1.08c-3.5-9.42-5.33-19.32-5.33-29.44,0-7.86,1.07-15.5,3.23-22.66.43-1.83,1.02-3.61,1.62-5.27,3.07-8.61,7.48-16.63,13.13-23.73,1.24-1.51,2.42-2.96,3.77-4.36,15.07-16.57,35.62-26.26,58.23-27.23,9.9.48,19.48,1.78,28.47,3.77l.7.05.05.16c10.82,2.42,21.47,5.97,32.5,10.92l5.17-3.18,12.11-7.53,1.13-.65,1.07-.59c1.83-1.13,3.71-2.26,5.65-3.34-18.14-9.63-34.87-16.04-52.63-19.96l-.7-.16c-9.47-2.91-19.59-4.36-30.14-4.36,0,0-1.29,0-2.04.05v.05h-1.02C73.02.97,43.26,15.93,23.35,41.17c-1.13,1.4-2.26,2.8-3.28,4.25-5.17,7.21-9.42,15.01-12.59,23.25-.64,1.61-1.29,3.34-1.83,5.06C1.88,84.75,0,96.32,0,108.11c0,14.26,2.74,28.09,8.12,41.17,3.39,8.23,7.75,15.98,12.97,23.03,2.48,3.34,5.27,6.62,8.34,9.85l.32.38,1.19,1.18c.81.86,1.61,1.67,2.48,2.48l128.34,128.34c10.55,10.55,24.59,16.36,39.5,16.36s28.95-5.81,39.55-16.36l130.33-130.39,1.02-1.08c2.58-2.64,4.9-5.27,6.94-7.91,1.08-1.4,2.15-2.8,3.23-4.3,5.11-7.1,9.36-14.91,12.65-23.19.65-1.61,1.18-3.28,1.83-5.11,3.77-11.03,5.65-22.6,5.65-34.44,0-14.26-2.74-28.09-8.12-41.11ZM218.69,187.16l-1.13.7c-2.15,1.29-4.4,2.58-6.71,3.92l21.47-12.99-3.89,2.4c-3.17,1.99-6.35,3.98-9.74,5.97Z"/>
  <g>
    <path class="cls-2" d="M631,263.11v4.1s-14.67,0-20.66-.04l-4.62-.04c-30.06,0-39.69-19.49-53.03-46.36l-.19-.42c-3.23-6.52-6.22-12.47-9.63-18.69-4.66-8.57-10.5-15.92-17.36-21.76-2.89-2.51-6.06-4.74-9.44-6.67-.04,0-.19-.08-.34-.19l-.99-.64c-.53-.34-1.25-.76-1.97-1.18l-.38-.27h-22.85v66.64c0,10.88,1.9,17.78,5.91,21.76,2.62,2.58,6.1,3.75,10.65,3.75h2.17v4.1h-67.33v-4.1h1.14c5.04.12,8.79-1.09,11.6-3.74,4.06-3.94,5.91-10.84,5.91-21.72V90.8c0-10.92-1.9-17.82-5.91-21.72-2.65-2.54-6.1-3.82-10.58-3.82h-2.16v-4.1h90.9c45.95,0,72.33,19.41,72.33,53.3,0,30.85-23.09,51.13-63.31,55.57l-4.21.45,3.6,2.24c.61.38,1.18.76,1.74,1.14l1.02.64c.84.57,1.56,1.02,2.04,1.32,7.63,4.59,14.45,10.62,20.93,18.39,1.56,1.78,3.07,3.68,4.55,5.76,1.37,1.9,2.73,3.79,4.09,5.69l5.5,7.74c6.48,9.21,13.19,18.73,20.69,27.56l.57.68c6.52,7.74,16.33,19.14,28.69,21.33l.91.15ZM572.63,114.52c0-30.06-14.48-46.59-40.75-46.59h-42.34v96.36h34.42c30.48,0,48.67-18.61,48.67-49.77Z"/>
    <path class="cls-2" d="M700.78,263.11v4.1h-59.48v-4.1h2.05c3.79,0,6.86-1.24,9.18-3.74,3.56-3.94,5.23-10.84,5.23-21.72l-.04-76.31c0-10.77-1.67-17.63-5.27-21.57-2.39-2.65-5.42-3.98-9.02-3.98-.42,0-2.89.04-2.89.04v-4.1l.95-.16,37.99-6.52h4.92v112.6c0,10.88,1.63,17.78,5.23,21.76,2.23,2.51,5.3,3.7,9.13,3.7h2.01ZM656.66,96.95c-2.95-3.03-4.44-6.78-4.44-11.15s1.56-8.07,4.78-11.29c3.15-3.18,7.02-4.78,11.48-4.78s8.27,1.6,11.49,4.78c3.23,3.22,4.78,6.94,4.78,11.29s-1.63,8.34-4.78,11.49c-3.11,3.18-6.97,4.78-11.49,4.78s-8.33-1.59-11.48-4.78l-.34-.34Z"/>
    <path class="cls-2" d="M850.3,125.05v4.1h-1.17c-7.69,0-14.64,7.19-19.03,19.97l-40.79,118.09h-12.89l-.3-.68-52.35-122.25c-4.85-10.99-9.32-15.05-15.99-15.13h-1.14v-4.1h56.03v4.1h-1.71c-3.83,0-6.52,1.17-8.08,3.78-2.04,3.49-1.74,8.81.95,15.94l37.87,89.2c.67-1.92,29.33-83.8,29.95-85.72,1.95-6.01,3.95-13.68.18-19.42-1.67-2.54-4.75-3.78-8.61-3.78h-2.09v-4.1h39.16Z"/>
    <path class="cls-2" d="M979.75,183.73h-96.2c-.84,11.9.19,23.65,2.92,34,3,11.22,8.08,20.58,14.71,27.06,10.43,10.32,26.61,14.56,40.33,10.43,12.93-3.75,24.68-14.37,31.39-28.39l.49-1.06,2.84,1.45c.49.26.76.45,1.06.6.34.19.65.38,1.21.68l.87.46-.34.95c-6.52,17.32-20.36,31.46-36.17,36.88-5.69,1.97-11.75,2.96-18,2.96-7.02,0-14.29-1.21-21.65-3.68-13.79-4.62-25.43-12.89-33.62-23.92-10.62-14.29-15.78-34.72-13.73-54.58,1.56-15.16,7.09-29.57,15.58-40.52,11.45-14.67,29.07-23.81,47.2-24.45.68-.04,1.32-.04,2.01-.04,15.01,0,29.76,5.8,40.41,15.96,11.72,11.22,18.69,27.67,18.69,44.05v1.18ZM955.04,176.48c.72-12.51-3.23-24.94-10.5-33.31-7.58-8.8-18.91-13.01-29.03-10.74-7.69,1.74-14.9,6.91-20.28,14.48-6.52,9.1-10.35,19.3-11.07,29.57h70.89Z"/>
    <path class="cls-2" d="M1102.89,144.85c-2.51,3.37-5.5,4.86-9.1,4.55-3.45-.34-6.86-2.31-10.16-4.21-1.82-1.06-3.56-2.08-5.19-2.73-2.5-.99-10.99-4.02-18.08-.27-5.12,2.65-11.34,8.08-19.03,16.56l-.38.42v.6c0,32.03-.04,77.82-.04,77.82,0,10.96,1.63,17.86,5.2,21.76,2.35,2.54,5.34,3.74,9.21,3.74h1.99v4.1h-59.46v-4.1h1.14c4.54.1,7.5-.94,10.01-3.59,3.37-3.68,5.08-9.86,5.27-19.56.04-1.14.11-77.83.11-78.54,0-10.81-1.7-17.7-5.34-21.72-2.51-2.84-5.95-4.09-10.31-3.94h-1.48v-4.09l38.17-6.61h5.57l-.04,23.63,1.9-2.08c10.05-11.18,28.58-23.43,45.64-23.92,1.86.04,3.76.12,5.53.6,3.15.84,6.37,2.58,8.41,4.59,1.86,1.78,3.04,4.44,3.23,7.47.23,3.45-.8,6.89-2.76,9.51Z"/>
  </g>
</svg>